<?xml version="1.0" encoding="utf-8"?>
<!-- Generator: Adobe Illustrator 16.0.0, SVG Export Plug-In . SVG Version: 6.00 Build 0)  -->
<!DOCTYPE svg PUBLIC "-//W3C//DTD SVG 1.1//EN" "http://www.w3.org/Graphics/SVG/1.1/DTD/svg11.dtd">
<svg version="1.1" xmlns="http://www.w3.org/2000/svg" xmlns:xlink="http://www.w3.org/1999/xlink" x="0px" y="0px"
	 width="213.789px" height="211.579px" viewBox="0 0 213.789 211.579" enable-background="new 0 0 213.789 211.579"
	 xml:space="preserve">
<g id="Layer_3">
	<rect x="51.931" y="52.244" fill="#FFFFFF" width="110.165" height="107.266"/>
</g>
<g id="birds">
	<g>
		<path fill="#BC333A" stroke="#BC333A" stroke-width="2" stroke-miterlimit="10" d="M107.385,156.907
			c-2.332,0-3.629,0.599-5.309,2.18c-0.944-0.568-2.614-2.139-3.391-2.659c-1.443-0.967-3.056-1.387-4.682-1.764
			c-1.71-0.396-3.987-0.454-5.61,0.217c-1.16,0.48-3.261,2.273-3.142,3.652c-2.426-0.88-9.457-2.821-14.259-3.322
			c-4.559-0.232-8.722,0.101-10.94,0.609c-3.397,1.051-8.657,4.471-8.99,4.92c-0.588,0.793,1.494,3.82,2.152,4.647
			c0.544,0.683,1.649,1.286,1.726,2.095c0.053,0.558-2.968,4.479,0.7,7.5c0.85,0.369,2.157,1.165,4.108,1.003
			c-0.594,2.411-1.089,4.863,0.863,6.816c1.566,1.566,6.129,1.808,8.282,1.079c0.591,3.08,2.568,4.141,4.958,4.264
			c2.503,0.129,5.537-1.699,5.537-1.699s2.652-0.007,3.947-0.541c1.192-0.491,1.98-0.706,3.204-0.166
			c-1.579,2.112-5.912,6.313-5.956,7.501c-0.129,3.537,2.734,5.214,3.874,5.669c3.126,1.249,8.803,1.406,10.447,0.858
			c1.682-0.561,4.745-2.56,6.25-4.685c0.45,0.386,0.565,0.977,0.924,1.404c0.492,0.585,1.041,0.732,1.641,1.113
			c1.064,0.675,2.51,1.33,3.931,1.888c0,0,2.446-1.283,3.4-1.888c0.602-0.381,1.149-0.528,1.641-1.113
			c0.361-0.427,0.475-1.018,0.925-1.404c1.506,2.125,4.567,4.124,6.25,4.685c1.645,0.548,7.321,0.39,10.446-0.858
			c1.141-0.455,4.004-2.132,3.874-5.669c-0.042-1.188-4.376-5.389-5.954-7.501c1.223-0.54,2.012-0.326,3.203,0.166
			c1.295,0.534,3.947,0.541,3.947,0.541s3.033,1.828,5.536,1.699c2.391-0.124,4.367-1.185,4.957-4.264
			c2.154,0.729,6.717,0.488,8.283-1.079c1.952-1.953,1.458-4.405,0.864-6.816c1.951,0.162,3.258-0.634,4.107-1.003
			c3.669-3.021,0.646-6.942,0.699-7.5c0.076-0.809,1.181-1.412,1.726-2.095c0.657-0.827,2.74-3.854,2.151-4.647
			c-0.332-0.45-5.592-3.869-8.989-4.92c-2.22-0.508-6.383-0.841-10.94-0.609c-4.802,0.501-11.834,2.442-14.259,3.322
			c0.118-1.379-1.983-3.172-3.143-3.652c-1.623-0.671-3.899-0.613-5.608-0.217c-1.627,0.376-3.239,0.797-4.684,1.764
			c-0.775,0.52-2.445,2.091-3.39,2.659C111.014,157.506,109.717,156.907,107.385,156.907"/>
		<g>
			<g>
				<path fill="#FFFFFF" stroke="#BC333A" stroke-width="2" stroke-miterlimit="10" d="M101.554,161.276
					c0.139,0.775-0.095,1.536-0.61,2.12c-0.983,1.119-3.53,1.05-4.813,0.542c-1.454-0.575-2.451-1.539-3.361-2.768
					c-0.552-0.746-0.784-0.995-1.725-1.259c-1.078-0.302-2.342-0.469-3.323-1.026c-1.229-0.697-0.261-2.042,0.848-2.463
					c1.122-0.425,2.978-0.261,4.208-0.168c1.398,0.106,2.884,0.658,4.172,1.306C97.895,158.036,101.454,160.713,101.554,161.276z"/>
				<path fill="#FFFFFF" stroke="#BC333A" stroke-width="2" stroke-miterlimit="10" d="M91.872,166.249c0,0-0.084-0.135-0.267-0.373
					c-1.173-1.531-6.415-7.306-19.594-8.741c6.144,3.644,11.95,7.16,19.777,8.979"/>
				<path fill="#FFFFFF" stroke="#BC333A" stroke-width="2" stroke-miterlimit="10" d="M58.275,167.077
					c-0.456,0.148-0.969,1.535-1.073,2.006c-0.199,0.898-0.345,2.014-0.075,2.924c0.544,1.832,3.208,1.344,4.517,0.55
					c0.823-0.499,1.632-1.254,1.958-2.199c0.456-1.322,0.164-2.867-0.913-3.776c-0.775-0.652-1.571-1.049-2.603-0.84
					c-1.204,0.245-1.957,1.16-2.443,2.176"/>
				<path fill="#FFFFFF" stroke="#BC333A" stroke-width="2" stroke-miterlimit="10" d="M64.537,174.554
					c-0.507,0.165-1.077,1.706-1.192,2.229c-0.221,0.998-0.383,2.237-0.083,3.249c0.604,2.035,3.563,1.493,5.018,0.611
					c0.915-0.554,1.814-1.394,2.176-2.442c0.506-1.469,0.183-3.186-1.014-4.195c-0.861-0.725-1.745-1.166-2.891-0.934
					c-1.338,0.272-2.175,1.289-2.714,2.418"/>
				<path fill="#FFFFFF" stroke="#BC333A" stroke-width="2" stroke-miterlimit="10" d="M73.62,180.181
					c-0.315,0.263-0.278,1.574-0.21,1.998c0.13,0.809,0.372,1.781,0.878,2.456c1.019,1.357,2.981,0.135,3.768-0.926
					c0.494-0.667,0.896-1.544,0.852-2.429c-0.062-1.24-0.789-2.436-1.937-2.862c-0.825-0.305-1.585-0.392-2.338,0.098
					c-0.879,0.573-1.184,1.565-1.245,2.56"/>
				<path fill="#FFFFFF" stroke="#BC333A" stroke-width="2" stroke-miterlimit="10" d="M82.877,180.31
					c-0.143,0.312,0.333,1.24,0.528,1.518c0.373,0.531,0.884,1.137,1.489,1.423c1.217,0.579,2.246-1.065,2.462-2.135
					c0.137-0.673,0.133-1.46-0.202-2.08c-0.47-0.867-1.415-1.444-2.408-1.303c-0.713,0.103-1.304,0.337-1.692,0.983
					c-0.452,0.755-0.338,1.587-0.042,2.327"/>
				<path fill="#FFFFFF" stroke="#BC333A" stroke-width="2" stroke-miterlimit="10" d="M100.133,176.838
					c0.215,0.503,0.449,1.95-0.319,2.595c-0.437,0.367-3.101-1.577-3.234-2.861c-0.29-3.548,1.162-6.543,1.451-7.136
					c0.398-0.814,0.882-1.647,1.91-1.546c1.124,0.111,1.104,1.241,0.978,2.188c-0.102,0.767-0.652,1.901-0.959,2.931
					C99.657,175.211,99.668,175.75,100.133,176.838z"/>
				<path fill="#FFFFFF" stroke="#BC333A" stroke-width="2" stroke-miterlimit="10" d="M97.258,182.912
					c1.389-0.631,2.16-0.725,2.56-0.629c0.162,1.675-1.083,3.417-2.174,4.677c-0.575,0.666-0.402,1.505-0.402,2.343
					c0,0.812-0.009,1.625,0,2.437c0.007,0.615-0.298,0.647-0.883,0.646c-0.417,0-0.773,0.023-1.159-0.114
					c-0.756-0.269-1.216-0.576-1.826-1.04c-0.546-0.414-1.078-0.844-1.43-1.411c-0.345-0.556-0.848-1.24-0.357-1.828
					c0.247-0.296,2-2.533,2.516-2.976C95.205,184.068,95.87,183.543,97.258,182.912z"/>
				<path fill="#FFFFFF" stroke="#BC333A" stroke-width="2" stroke-miterlimit="10" d="M86.236,188.737
					c-0.92,1.087-1.777,2.201-2.532,3.414c-0.362,0.582-1.35,1.876-1.069,2.578c0.583,1.452,6.548,3.467,8.204,3.547
					c0.881,0.042,1.829,0.056,2.712-0.003c0.648-0.042,1.466-0.475,2.024-0.829c0.81-0.514,1.382-1.215,1.867-1.969
					c-0.798,0.41-1.462,0.615-2.386,0.697c-1.175,0.104-2.61,0.124-3.784-0.021c-1.022-0.126-2.382-0.421-3.261-0.978
					c-0.553-0.35-1.086-0.893-1.555-1.398c-0.404-0.437-0.856-0.668-0.438-1.26c0.394-0.558,7.435-11.363,8.085-12.842
					C92.161,181.346,87.175,187.628,86.236,188.737z"/>
			</g>
			<path fill="#FFFFFF" stroke="#BC333A" stroke-width="2" stroke-miterlimit="10" d="M67.721,158.231
				c1.43,0.99,0.049,1.208-1.474,2.294c1.208-0.42,4.56-1.433,5.803-0.797c1.314,0.671-1.048,3.659-2.184,5.216
				c0.374-0.423,3.613-2.996,4.124-3.252c0.55-0.277,1.467-0.151,1.599,0.475c0.379,1.81-1.139,3.589-1.936,4.881
				c0.225-0.081,3.942-3.214,4.713-2.757c0.924,0.547,0.614,1.804,0.546,2.2c-0.115,0.666-0.124,0.929-0.975,1.991
				c2.03-1.583,2.809-1.64,3.29-1.266c0.558,0.434,0.714,0.883,1.01,1.515c0.349,0.745-0.402,2.381-0.505,2.819
				c0.453-0.228,1.58-0.311,2.02-0.21c0.436,0.099,0.925,0.547,1.136,1.052c0.209,0,1.158-0.997,2.02-0.926
				c2.683,0.22,5.599-0.033,8.079-0.21c-0.371,0.665-3.542,2.418-4.628,2.819c-0.448,0.166-1.572,1.04-2.104,1.178
				c-2.343,0.613-3.306,0.197-3.871-0.252c-0.421,0.631-0.821,1.313-2.19,1.313c-0.797,0-2.564-1.396-2.27-2.364
				c-1.431,1.178-3.24,2.364-4.188,1.716c-0.89-0.608-1.029-2.399-0.272-3.989c-1.052,1.332-1.214,1.332-1.67,1.883
				c-0.332,0.401-1.447,1.153-1.844,0.613c-0.293-0.399-0.737-1.235-0.694-1.696c0.063-0.661,0.505-2.073,1.431-4.082
				c-0.896,0.905-3.533,2.622-5.006,2.707c-0.723,0.041-0.355-1.344,0.293-2.917c0.376-0.911,1.22-2.498,1.894-3.24
				c-0.517,0.321-1.766,1.552-2.269,1.883c-0.791,0.521-1.702,1.257-2.064,1.222c-0.147-0.516-0.04-1.319,0.125-1.8
				c0.291-0.847,0.631-1.431,1.352-2.543c-0.951,0.586-1.403,0.856-2.025,1.113c-0.75,0.311-0.499,0.337-1.888,0.337
				c-0.841,0-0.633-1.423-0.48-2.064c0.192-0.806,0.498-0.848,1.07-1.461c-0.59,0.062-2.792-0.104-3.228-0.399
				c-0.449-0.302-0.535-0.841-0.414-1.373c0.167-0.742,0.76-1.702,1.321-2.193c0.962-0.843,3.57-1.114,3.787-0.53
				c0.289,0.776,0.655,1.509-0.053,1.666C65.1,158.801,67.018,157.745,67.721,158.231z"/>
		</g>
		<g>
			<g>
				<path fill="#FFFFFF" stroke="#BC333A" stroke-width="2" stroke-miterlimit="10" d="M113.172,161.268
					c-0.139,0.775,0.096,1.536,0.609,2.121c0.984,1.118,3.531,1.05,4.814,0.542c1.453-0.576,2.45-1.539,3.36-2.768
					c0.552-0.746,0.784-0.996,1.726-1.259c1.078-0.302,2.342-0.469,3.322-1.025c1.229-0.697,0.262-2.043-0.847-2.463
					c-1.122-0.426-2.979-0.261-4.208-0.168c-1.398,0.106-2.885,0.658-4.172,1.306C116.832,158.028,113.273,160.704,113.172,161.268z
					"/>
				<path fill="#FFFFFF" stroke="#BC333A" stroke-width="2" stroke-miterlimit="10" d="M122.854,166.24c0,0,0.084-0.135,0.268-0.374
					c1.174-1.53,6.413-7.306,19.594-8.74c-6.143,3.644-11.949,7.16-19.777,8.979"/>
				<path fill="#FFFFFF" stroke="#BC333A" stroke-width="2" stroke-miterlimit="10" d="M156.452,167.068
					c0.456,0.148,0.969,1.535,1.073,2.006c0.199,0.899,0.344,2.014,0.074,2.925c-0.543,1.832-3.207,1.344-4.517,0.549
					c-0.823-0.499-1.633-1.254-1.958-2.199c-0.456-1.322-0.164-2.867,0.913-3.775c0.774-0.652,1.571-1.049,2.602-0.84
					c1.205,0.245,1.957,1.16,2.443,2.176"/>
				<path fill="#FFFFFF" stroke="#BC333A" stroke-width="2" stroke-miterlimit="10" d="M150.19,174.545
					c0.508,0.165,1.077,1.706,1.192,2.229c0.221,0.998,0.383,2.237,0.083,3.249c-0.604,2.035-3.563,1.493-5.018,0.61
					c-0.915-0.554-1.815-1.394-2.175-2.442c-0.508-1.469-0.185-3.186,1.012-4.195c0.861-0.725,1.747-1.166,2.892-0.934
					c1.338,0.272,2.175,1.289,2.716,2.418"/>
				<path fill="#FFFFFF" stroke="#BC333A" stroke-width="2" stroke-miterlimit="10" d="M141.106,180.172
					c0.316,0.263,0.279,1.574,0.211,1.998c-0.131,0.809-0.371,1.781-0.879,2.456c-1.02,1.358-2.98,0.136-3.768-0.926
					c-0.494-0.667-0.895-1.544-0.852-2.429c0.062-1.239,0.787-2.436,1.938-2.862c0.824-0.305,1.584-0.392,2.338,0.098
					c0.878,0.574,1.183,1.565,1.243,2.56"/>
				<path fill="#FFFFFF" stroke="#BC333A" stroke-width="2" stroke-miterlimit="10" d="M131.849,180.301
					c0.142,0.312-0.334,1.24-0.528,1.519c-0.373,0.531-0.884,1.137-1.488,1.423c-1.217,0.579-2.246-1.065-2.463-2.136
					c-0.137-0.673-0.133-1.46,0.203-2.08c0.47-0.867,1.415-1.444,2.408-1.303c0.713,0.103,1.303,0.337,1.691,0.982
					c0.453,0.756,0.337,1.587,0.043,2.327"/>
				<path fill="#FFFFFF" stroke="#BC333A" stroke-width="2" stroke-miterlimit="10" d="M114.593,176.83
					c-0.216,0.503-0.449,1.949,0.319,2.594c0.437,0.368,3.1-1.577,3.233-2.861c0.29-3.548-1.161-6.543-1.451-7.135
					c-0.397-0.814-0.882-1.647-1.909-1.546c-1.123,0.11-1.104,1.241-0.979,2.188c0.102,0.767,0.652,1.901,0.959,2.93
					C115.07,175.203,115.059,175.742,114.593,176.83z"/>
				<path fill="#FFFFFF" stroke="#BC333A" stroke-width="2" stroke-miterlimit="10" d="M117.468,182.903
					c-1.389-0.631-2.159-0.725-2.56-0.629c-0.162,1.675,1.083,3.417,2.174,4.677c0.575,0.665,0.402,1.505,0.402,2.342
					c0,0.812,0.009,1.625,0,2.437c-0.007,0.615,0.298,0.648,0.883,0.646c0.418,0,0.773,0.023,1.159-0.115
					c0.756-0.269,1.216-0.576,1.826-1.04c0.546-0.414,1.077-0.844,1.431-1.411c0.345-0.556,0.848-1.24,0.356-1.828
					c-0.247-0.297-2.001-2.533-2.517-2.976C119.522,184.06,118.857,183.534,117.468,182.903z"/>
				<path fill="#FFFFFF" stroke="#BC333A" stroke-width="2" stroke-miterlimit="10" d="M128.491,188.729
					c0.92,1.087,1.777,2.201,2.533,3.414c0.361,0.582,1.349,1.876,1.066,2.577c-0.58,1.452-6.547,3.467-8.203,3.547
					c-0.881,0.042-1.828,0.056-2.713-0.003c-0.646-0.043-1.465-0.476-2.023-0.829c-0.81-0.514-1.381-1.216-1.866-1.969
					c0.798,0.41,1.462,0.615,2.386,0.698c1.176,0.104,2.61,0.124,3.785-0.022c1.021-0.126,2.381-0.421,3.26-0.978
					c0.554-0.35,1.086-0.893,1.556-1.398c0.403-0.437,0.856-0.668,0.438-1.26c-0.395-0.558-7.436-11.363-8.086-12.842
					C122.565,181.337,127.551,187.62,128.491,188.729z"/>
			</g>
			<path fill="#FFFFFF" stroke="#BC333A" stroke-width="2" stroke-miterlimit="10" d="M147.005,158.223
				c-1.429,0.99-0.049,1.208,1.475,2.294c-1.207-0.421-4.56-1.433-5.804-0.797c-1.313,0.671,1.049,3.659,2.186,5.216
				c-0.375-0.424-3.613-2.996-4.124-3.253c-0.551-0.276-1.468-0.151-1.599,0.476c-0.379,1.809,1.139,3.589,1.936,4.881
				c-0.227-0.081-3.942-3.213-4.713-2.757c-0.926,0.547-0.615,1.804-0.547,2.201c0.115,0.666,0.123,0.928,0.976,1.991
				c-2.03-1.584-2.809-1.64-3.29-1.266c-0.558,0.433-0.715,0.883-1.01,1.515c-0.35,0.745,0.4,2.381,0.505,2.819
				c-0.452-0.228-1.581-0.31-2.02-0.21c-0.437,0.099-0.926,0.547-1.136,1.052c-0.211-0.001-1.159-0.997-2.021-0.926
				c-2.684,0.219-5.6-0.033-8.079-0.21c0.371,0.665,3.541,2.418,4.627,2.819c0.449,0.166,1.573,1.039,2.105,1.178
				c2.344,0.613,3.307,0.197,3.871-0.252c0.422,0.631,0.82,1.312,2.191,1.312c0.797,0,2.564-1.396,2.27-2.364
				c1.431,1.178,3.24,2.364,4.187,1.717c0.892-0.608,1.03-2.399,0.273-3.989c1.052,1.331,1.212,1.331,1.67,1.883
				c0.331,0.4,1.446,1.152,1.844,0.613c0.293-0.399,0.736-1.235,0.694-1.696c-0.063-0.662-0.505-2.073-1.431-4.082
				c0.896,0.905,3.532,2.622,5.005,2.706c0.723,0.042,0.356-1.344-0.292-2.917c-0.376-0.911-1.221-2.499-1.894-3.24
				c0.516,0.321,1.765,1.551,2.269,1.883c0.79,0.521,1.702,1.257,2.064,1.222c0.146-0.516,0.039-1.319-0.125-1.8
				c-0.292-0.847-0.632-1.431-1.353-2.544c0.95,0.586,1.403,0.856,2.025,1.113c0.749,0.31,0.498,0.336,1.887,0.336
				c0.842,0,0.633-1.422,0.48-2.063c-0.192-0.806-0.497-0.848-1.07-1.461c0.59,0.062,2.793-0.104,3.229-0.399
				c0.448-0.302,0.533-0.841,0.412-1.373c-0.167-0.742-0.76-1.702-1.319-2.193c-0.963-0.843-3.572-1.114-3.787-0.53
				c-0.29,0.776-0.655,1.509,0.052,1.666C149.626,158.792,147.708,157.736,147.005,158.223z"/>
		</g>
		<path fill="#FFFFFF" stroke="#BC333A" stroke-width="2" stroke-miterlimit="10" d="M107.385,173.896
			c1.402,0.067,2.412-1.84,3.406-1.442c1.278,0.512,0.721,1.594,0.512,2.253c-0.37,1.165-1.016,2.237-2.29,2.504
			c-0.854,0.178-2.615,0.158-3.44-0.114c-0.994-0.329-1.835-0.792-2.218-1.994c-0.18-0.565-0.448-2.37,0.249-2.571
			C105.253,172.056,105.803,173.82,107.385,173.896z"/>
		<path fill="#FFFFFF" stroke="#BC333A" stroke-width="2" stroke-miterlimit="10" d="M104.972,182.547
			c-0.427-0.318-2.219-2.208-2.728-2.347c0.014,0.366,0.2,2.743,0.203,3.164c0.004,0.436,0.58,2.08,1.122,2.55
			c1.132,0.98,1.772,1.457,3.498,1.427c1.304-0.022,2.198-0.088,2.896-0.6c0.9-0.66,1.44-1.448,1.642-1.837
			c0.8-1.55,0.736-2.383,0.922-4.701c-1.067,0.114-2.278,1.857-3.142,2.495c-0.546,0.404-1.249,0.772-1.985,0.852
			C106.979,183.594,105.387,182.856,104.972,182.547z"/>
		<path fill="#FFFFFF" stroke="#BC333A" stroke-width="2" stroke-miterlimit="10" d="M110.415,192.084
			c2.342-2.076,2.443-1.824,3.928-2.503c-0.992,1.963-0.688,1.197-1.815,2.804c-0.776,1.107-0.927,1.428-2.225,3.065
			c-0.817,0.834-1.755,1.702-2.503,2.596c-0.375-0.169-0.765-0.914-1.069-1.238c-0.79-0.844-1.638-1.628-2.421-2.476
			c-0.726-0.784-1.417-1.728-2.074-2.578c-0.434-0.56-0.641-0.96-1.22-2.173c1.142,0.408,2.337,1.333,3.352,2.062
			c1.074,0.771,1.754,1.709,3.464,2.487C109.461,193.095,109.461,193.095,110.415,192.084z"/>
	</g>
	<g>
		<path fill="#BC333A" stroke="#BC333A" stroke-width="2" stroke-miterlimit="10" d="M107.678,54.756
			c2.332,0,3.629-0.599,5.31-2.179c0.944,0.568,2.614,2.139,3.39,2.659c1.443,0.966,3.057,1.387,4.683,1.763
			c1.71,0.396,3.987,0.455,5.609-0.217c1.159-0.48,3.261-2.273,3.143-3.652c2.425,0.88,9.457,2.821,14.26,3.322
			c4.557,0.232,8.721-0.101,10.939-0.609c3.398-1.051,8.658-4.471,8.989-4.92c0.589-0.793-1.494-3.82-2.151-4.647
			c-0.544-0.683-1.648-1.286-1.725-2.095c-0.053-0.558,2.969-4.479-0.7-7.5c-0.85-0.369-2.156-1.165-4.107-1.003
			c0.594-2.41,1.089-4.863-0.862-6.816c-1.568-1.566-6.131-1.807-8.284-1.078c-0.59-3.08-2.567-4.141-4.957-4.264
			c-2.502-0.13-5.537,1.699-5.537,1.699s-2.65,0.006-3.947,0.541c-1.191,0.491-1.98,0.706-3.203,0.166
			c1.578-2.112,5.912-6.313,5.954-7.501c0.132-3.537-2.732-5.214-3.874-5.669c-3.124-1.249-8.803-1.406-10.447-0.858
			c-1.683,0.561-4.744,2.56-6.25,4.684c-0.449-0.386-0.563-0.977-0.924-1.404c-0.492-0.584-1.04-0.731-1.641-1.113
			c-1.064-0.675-2.511-1.33-3.932-1.888c0,0-2.446,1.283-3.401,1.888c-0.6,0.381-1.149,0.528-1.641,1.113
			c-0.36,0.428-0.473,1.019-0.923,1.404c-1.507-2.125-4.568-4.124-6.251-4.684c-1.644-0.548-7.32-0.39-10.446,0.858
			c-1.14,0.455-4.004,2.132-3.874,5.669c0.042,1.188,4.376,5.389,5.954,7.501c-1.223,0.54-2.012,0.326-3.203-0.166
			c-1.295-0.534-3.947-0.541-3.947-0.541s-3.034-1.829-5.536-1.699c-2.391,0.124-4.367,1.185-4.958,4.264
			c-2.154-0.729-6.717-0.488-8.283,1.078c-1.953,1.953-1.458,4.406-0.864,6.816c-1.952-0.162-3.259,0.635-4.108,1.003
			c-3.669,3.021-0.647,6.942-0.7,7.5c-0.076,0.809-1.181,1.412-1.725,2.095c-0.658,0.827-2.74,3.854-2.151,4.647
			c0.332,0.45,5.591,3.869,8.989,4.92c2.22,0.508,6.383,0.841,10.94,0.609c4.802-0.501,11.834-2.442,14.259-3.322
			c-0.119,1.379,1.983,3.172,3.143,3.652c1.623,0.671,3.899,0.613,5.609,0.217c1.625-0.376,3.237-0.797,4.681-1.763
			c0.776-0.52,2.446-2.091,3.39-2.659C104.049,54.158,105.345,54.756,107.678,54.756"/>
		<g>
			<g>
				<path fill="#FFFFFF" stroke="#BC333A" stroke-width="2" stroke-miterlimit="10" d="M113.51,50.388
					c-0.139-0.775,0.096-1.536,0.609-2.121c0.983-1.118,3.531-1.05,4.814-0.542c1.453,0.575,2.449,1.539,3.36,2.768
					c0.553,0.747,0.784,0.996,1.727,1.259c1.075,0.302,2.341,0.469,3.321,1.025c1.229,0.697,0.264,2.043-0.846,2.464
					c-1.123,0.425-2.98,0.261-4.21,0.168c-1.397-0.105-2.885-0.658-4.172-1.306C117.168,53.627,113.611,50.951,113.51,50.388z"/>
				<path fill="#FFFFFF" stroke="#BC333A" stroke-width="2" stroke-miterlimit="10" d="M123.192,45.415c0,0,0.085,0.136,0.267,0.374
					c1.173,1.531,6.414,7.306,19.595,8.74c-6.143-3.644-11.949-7.16-19.776-8.978"/>
				<path fill="#FFFFFF" stroke="#BC333A" stroke-width="2" stroke-miterlimit="10" d="M156.79,44.587
					c0.457-0.148,0.971-1.535,1.073-2.006c0.199-0.899,0.344-2.014,0.076-2.924c-0.545-1.832-3.209-1.344-4.519-0.55
					c-0.823,0.499-1.633,1.254-1.956,2.199c-0.458,1.322-0.166,2.867,0.912,3.776c0.773,0.652,1.57,1.049,2.601,0.84
					c1.205-0.245,1.957-1.16,2.443-2.176"/>
				<path fill="#FFFFFF" stroke="#BC333A" stroke-width="2" stroke-miterlimit="10" d="M150.528,37.11
					c0.508-0.165,1.078-1.705,1.193-2.229c0.222-0.998,0.382-2.237,0.082-3.249c-0.604-2.035-3.563-1.493-5.018-0.611
					c-0.915,0.554-1.814,1.394-2.175,2.442c-0.508,1.469-0.185,3.186,1.012,4.195c0.863,0.725,1.747,1.166,2.894,0.934
					c1.336-0.272,2.175-1.289,2.714-2.418"/>
				<path fill="#FFFFFF" stroke="#BC333A" stroke-width="2" stroke-miterlimit="10" d="M141.444,31.483
					c0.316-0.263,0.279-1.574,0.211-1.998c-0.129-0.809-0.371-1.781-0.879-2.456c-1.018-1.358-2.979-0.135-3.766,0.926
					c-0.494,0.667-0.896,1.544-0.852,2.429c0.061,1.239,0.785,2.436,1.936,2.862c0.825,0.305,1.585,0.392,2.338-0.098
					c0.878-0.573,1.184-1.565,1.243-2.56"/>
				<path fill="#FFFFFF" stroke="#BC333A" stroke-width="2" stroke-miterlimit="10" d="M132.187,31.354
					c0.142-0.312-0.334-1.24-0.528-1.518c-0.371-0.531-0.884-1.137-1.488-1.423c-1.216-0.58-2.246,1.065-2.462,2.135
					c-0.138,0.673-0.132,1.46,0.202,2.08c0.471,0.867,1.415,1.444,2.409,1.303c0.712-0.104,1.302-0.337,1.69-0.983
					c0.453-0.755,0.337-1.587,0.043-2.327"/>
				<path fill="#FFFFFF" stroke="#BC333A" stroke-width="2" stroke-miterlimit="10" d="M114.931,34.825
					c-0.216-0.503-0.45-1.949,0.317-2.594c0.438-0.368,3.102,1.577,3.235,2.861c0.29,3.548-1.162,6.543-1.452,7.136
					c-0.396,0.814-0.882,1.647-1.908,1.546c-1.123-0.111-1.105-1.241-0.979-2.188c0.102-0.767,0.652-1.901,0.959-2.93
					C115.407,36.453,115.397,35.914,114.931,34.825z"/>
				<path fill="#FFFFFF" stroke="#BC333A" stroke-width="2" stroke-miterlimit="10" d="M117.805,28.752
					c-1.389,0.631-2.158,0.725-2.559,0.629c-0.163-1.675,1.082-3.417,2.172-4.676c0.576-0.666,0.402-1.506,0.402-2.343
					c0-0.812,0.011-1.625,0-2.437c-0.005-0.615,0.299-0.647,0.885-0.646c0.418,0,0.772-0.023,1.159,0.114
					c0.755,0.269,1.215,0.576,1.825,1.04c0.547,0.414,1.078,0.844,1.431,1.411c0.346,0.556,0.849,1.24,0.358,1.828
					c-0.246,0.296-2.002,2.532-2.518,2.976C119.86,27.596,119.194,28.121,117.805,28.752z"/>
				<path fill="#FFFFFF" stroke="#BC333A" stroke-width="2" stroke-miterlimit="10" d="M128.829,22.926
					c0.92-1.087,1.777-2.201,2.533-3.413c0.362-0.582,1.349-1.876,1.066-2.578c-0.58-1.452-6.545-3.467-8.202-3.547
					c-0.881-0.042-1.83-0.056-2.714,0.003c-0.648,0.042-1.466,0.475-2.023,0.829c-0.811,0.514-1.383,1.215-1.867,1.969
					c0.798-0.41,1.462-0.615,2.387-0.697c1.174-0.104,2.609-0.124,3.784,0.021c1.022,0.126,2.383,0.421,3.261,0.978
					c0.555,0.35,1.086,0.893,1.557,1.398c0.402,0.437,0.855,0.668,0.438,1.261c-0.395,0.558-7.437,11.363-8.086,12.841
					C122.903,30.318,127.889,24.036,128.829,22.926z"/>
			</g>
			<path fill="#FFFFFF" stroke="#BC333A" stroke-width="2" stroke-miterlimit="10" d="M147.343,53.433
				c-1.429-0.99-0.048-1.208,1.475-2.295c-1.207,0.421-4.56,1.433-5.804,0.798c-1.313-0.671,1.049-3.659,2.186-5.216
				c-0.374,0.423-3.613,2.995-4.124,3.252c-0.55,0.277-1.468,0.151-1.599-0.476c-0.379-1.809,1.139-3.589,1.936-4.881
				c-0.227,0.081-3.942,3.214-4.713,2.757c-0.926-0.547-0.615-1.804-0.547-2.2c0.115-0.666,0.123-0.929,0.976-1.991
				c-2.03,1.584-2.809,1.64-3.29,1.266c-0.558-0.433-0.715-0.883-1.01-1.515c-0.35-0.745,0.402-2.381,0.505-2.819
				c-0.452,0.228-1.581,0.311-2.02,0.21c-0.437-0.099-0.926-0.547-1.136-1.052c-0.211,0-1.158,0.997-2.02,0.926
				c-2.684-0.22-5.602,0.033-8.081,0.21c0.371-0.665,3.544-2.418,4.63-2.819c0.447-0.166,1.572-1.04,2.104-1.178
				c2.344-0.613,3.307-0.197,3.871,0.252c0.422-0.631,0.821-1.313,2.191-1.313c0.797,0,2.564,1.396,2.27,2.364
				c1.431-1.178,3.24-2.364,4.187-1.716c0.892,0.608,1.031,2.399,0.273,3.989c1.052-1.332,1.212-1.332,1.67-1.883
				c0.331-0.4,1.446-1.152,1.844-0.613c0.294,0.399,0.736,1.235,0.694,1.696c-0.063,0.662-0.505,2.073-1.431,4.082
				c0.897-0.904,3.532-2.622,5.005-2.706c0.723-0.042,0.357,1.344-0.292,2.917c-0.376,0.912-1.221,2.499-1.894,3.24
				c0.516-0.321,1.765-1.552,2.27-1.883c0.789-0.521,1.701-1.257,2.064-1.221c0.147,0.516,0.039,1.319-0.126,1.8
				c-0.292,0.847-0.632,1.431-1.353,2.544c0.95-0.586,1.405-0.856,2.025-1.113c0.75-0.31,0.5-0.336,1.889-0.336
				c0.841,0,0.631,1.423,0.479,2.064c-0.192,0.806-0.497,0.848-1.07,1.46c0.592-0.062,2.793,0.105,3.229,0.399
				c0.449,0.302,0.533,0.841,0.412,1.373c-0.165,0.743-0.76,1.702-1.319,2.193c-0.963,0.843-3.571,1.114-3.787,0.53
				c-0.29-0.775-0.655-1.509,0.053-1.666C149.965,52.863,148.047,53.919,147.343,53.433z"/>
		</g>
		<g>
			<g>
				<path fill="#FFFFFF" stroke="#BC333A" stroke-width="2" stroke-miterlimit="10" d="M101.892,50.396
					c0.138-0.775-0.096-1.536-0.61-2.12c-0.983-1.118-3.53-1.05-4.814-0.542c-1.453,0.575-2.45,1.539-3.361,2.768
					c-0.552,0.746-0.784,0.995-1.725,1.259c-1.077,0.302-2.342,0.47-3.323,1.026c-1.229,0.697-0.262,2.042,0.847,2.463
					c1.123,0.425,2.979,0.261,4.208,0.168c1.399-0.106,2.885-0.658,4.173-1.306C98.231,53.636,101.791,50.959,101.892,50.396z"/>
				<path fill="#FFFFFF" stroke="#BC333A" stroke-width="2" stroke-miterlimit="10" d="M92.209,45.424c0,0-0.084,0.135-0.266,0.374
					c-1.173,1.53-6.415,7.306-19.595,8.74c6.144-3.644,11.95-7.16,19.776-8.979"/>
				<path fill="#FFFFFF" stroke="#BC333A" stroke-width="2" stroke-miterlimit="10" d="M58.612,44.596
					c-0.457-0.149-0.969-1.535-1.073-2.006c-0.2-0.899-0.344-2.014-0.075-2.925c0.543-1.832,3.207-1.344,4.517-0.549
					c0.823,0.499,1.633,1.254,1.958,2.198c0.457,1.322,0.165,2.867-0.913,3.776c-0.774,0.652-1.571,1.049-2.602,0.84
					c-1.205-0.245-1.957-1.16-2.443-2.176"/>
				<path fill="#FFFFFF" stroke="#BC333A" stroke-width="2" stroke-miterlimit="10" d="M64.874,37.119
					c-0.508-0.165-1.077-1.706-1.193-2.229c-0.221-0.998-0.382-2.236-0.083-3.249c0.605-2.035,3.563-1.493,5.018-0.611
					c0.916,0.554,1.815,1.394,2.175,2.443c0.508,1.469,0.184,3.185-1.012,4.195c-0.861,0.724-1.746,1.166-2.892,0.934
					c-1.337-0.272-2.175-1.289-2.715-2.418"/>
				<path fill="#FFFFFF" stroke="#BC333A" stroke-width="2" stroke-miterlimit="10" d="M73.958,31.491
					c-0.315-0.263-0.279-1.574-0.21-1.997c0.13-0.809,0.371-1.781,0.878-2.456c1.019-1.357,2.981-0.135,3.768,0.927
					c0.494,0.667,0.896,1.544,0.852,2.429c-0.062,1.239-0.788,2.436-1.937,2.862c-0.825,0.305-1.584,0.392-2.338-0.098
					c-0.878-0.573-1.184-1.564-1.244-2.56"/>
				<path fill="#FFFFFF" stroke="#BC333A" stroke-width="2" stroke-miterlimit="10" d="M83.215,31.362
					c-0.142-0.312,0.334-1.24,0.528-1.518c0.373-0.531,0.884-1.137,1.489-1.423c1.216-0.579,2.246,1.065,2.461,2.136
					c0.137,0.673,0.133,1.46-0.203,2.08c-0.469,0.867-1.415,1.444-2.407,1.303c-0.714-0.103-1.303-0.337-1.692-0.983
					c-0.453-0.755-0.337-1.587-0.042-2.327"/>
				<path fill="#FFFFFF" stroke="#BC333A" stroke-width="2" stroke-miterlimit="10" d="M100.471,34.834
					c0.214-0.503,0.448-1.949-0.32-2.594c-0.437-0.368-3.101,1.576-3.233,2.861c-0.291,3.548,1.161,6.543,1.451,7.135
					c0.398,0.814,0.883,1.647,1.909,1.546c1.125-0.11,1.104-1.241,0.979-2.188c-0.102-0.767-0.652-1.901-0.959-2.93
					C99.993,36.461,100.005,35.922,100.471,34.834z"/>
				<path fill="#FFFFFF" stroke="#BC333A" stroke-width="2" stroke-miterlimit="10" d="M97.595,28.761
					c1.389,0.631,2.161,0.725,2.561,0.629c0.162-1.675-1.083-3.417-2.174-4.677c-0.576-0.665-0.402-1.505-0.402-2.342
					c0-0.812-0.009-1.625,0-2.437c0.006-0.615-0.297-0.648-0.884-0.646c-0.417,0-0.773-0.023-1.158,0.114
					c-0.756,0.269-1.216,0.576-1.827,1.04c-0.545,0.415-1.078,0.844-1.431,1.411c-0.344,0.556-0.847,1.24-0.356,1.828
					c0.246,0.297,2,2.533,2.516,2.976C95.542,27.604,96.207,28.13,97.595,28.761z"/>
				<path fill="#FFFFFF" stroke="#BC333A" stroke-width="2" stroke-miterlimit="10" d="M86.573,22.935
					c-0.92-1.087-1.778-2.201-2.533-3.414c-0.362-0.582-1.349-1.876-1.068-2.577c0.582-1.452,6.547-3.467,8.203-3.547
					c0.882-0.042,1.831-0.056,2.714,0.003c0.647,0.043,1.465,0.476,2.022,0.829c0.81,0.514,1.383,1.216,1.867,1.969
					c-0.797-0.41-1.462-0.615-2.385-0.698c-1.175-0.104-2.611-0.124-3.784,0.022c-1.023,0.126-2.383,0.421-3.261,0.978
					c-0.554,0.35-1.086,0.893-1.556,1.398c-0.403,0.437-0.856,0.668-0.438,1.26c0.395,0.558,7.435,11.363,8.084,12.842
					C92.498,30.327,87.512,24.044,86.573,22.935z"/>
			</g>
			<path fill="#FFFFFF" stroke="#BC333A" stroke-width="2" stroke-miterlimit="10" d="M68.059,53.441
				c1.428-0.99,0.049-1.208-1.475-2.294c1.207,0.421,4.56,1.433,5.804,0.797c1.313-0.671-1.049-3.659-2.186-5.216
				c0.375,0.423,3.613,2.996,4.124,3.252c0.551,0.277,1.468,0.151,1.599-0.475c0.378-1.81-1.139-3.589-1.936-4.881
				c0.226,0.081,3.942,3.213,4.712,2.757c0.926-0.547,0.616-1.804,0.547-2.201c-0.116-0.666-0.124-0.928-0.976-1.991
				c2.03,1.584,2.809,1.64,3.29,1.266c0.558-0.433,0.715-0.883,1.01-1.515c0.35-0.745-0.401-2.381-0.505-2.819
				c0.453,0.228,1.581,0.31,2.02,0.21c0.437-0.099,0.926-0.547,1.136-1.052c0.21,0.001,1.158,0.997,2.02,0.926
				c2.684-0.22,5.599,0.033,8.079,0.21c-0.371-0.665-3.541-2.418-4.629-2.819c-0.447-0.166-1.571-1.04-2.104-1.178
				c-2.343-0.613-3.306-0.197-3.871,0.252c-0.421-0.631-0.821-1.312-2.191-1.312c-0.797,0-2.564,1.396-2.27,2.364
				c-1.431-1.178-3.24-2.364-4.187-1.717c-0.891,0.608-1.031,2.399-0.273,3.989c-1.052-1.331-1.212-1.331-1.67-1.883
				c-0.331-0.4-1.446-1.153-1.843-0.613c-0.293,0.399-0.736,1.235-0.694,1.696c0.063,0.661,0.505,2.073,1.431,4.082
				c-0.896-0.905-3.532-2.622-5.005-2.706c-0.723-0.042-0.356,1.344,0.292,2.917c0.376,0.911,1.22,2.499,1.894,3.24
				c-0.516-0.321-1.765-1.551-2.268-1.883c-0.791-0.521-1.703-1.257-2.064-1.222c-0.147,0.516-0.04,1.319,0.125,1.8
				c0.292,0.847,0.631,1.431,1.352,2.543c-0.95-0.585-1.403-0.856-2.025-1.113c-0.75-0.311-0.499-0.337-1.887-0.337
				c-0.841,0-0.632,1.423-0.48,2.064c0.192,0.806,0.497,0.848,1.07,1.461c-0.59-0.062-2.793,0.104-3.229,0.399
				c-0.448,0.303-0.534,0.841-0.413,1.373c0.167,0.742,0.76,1.702,1.32,2.193c0.963,0.843,3.572,1.114,3.787,0.53
				c0.29-0.776,0.655-1.509-0.052-1.666C65.437,52.872,67.355,53.927,68.059,53.441z"/>
		</g>
		<path fill="#FFFFFF" stroke="#BC333A" stroke-width="2" stroke-miterlimit="10" d="M107.678,37.768
			c-1.402-0.067-2.412,1.84-3.406,1.442c-1.278-0.512-0.72-1.594-0.511-2.254c0.37-1.164,1.016-2.236,2.289-2.503
			c0.855-0.178,2.616-0.159,3.44,0.114c0.994,0.329,1.836,0.792,2.218,1.994c0.181,0.564,0.449,2.37-0.248,2.571
			C109.811,39.608,109.261,37.844,107.678,37.768z"/>
		<path fill="#FFFFFF" stroke="#BC333A" stroke-width="2" stroke-miterlimit="10" d="M110.092,29.117
			c0.426,0.318,2.219,2.207,2.727,2.347c-0.013-0.366-0.199-2.743-0.202-3.164c-0.005-0.436-0.581-2.08-1.123-2.55
			c-1.132-0.98-1.772-1.457-3.497-1.427c-1.305,0.022-2.199,0.088-2.896,0.6c-0.899,0.659-1.441,1.448-1.641,1.837
			c-0.799,1.55-0.736,2.383-0.923,4.701c1.067-0.115,2.28-1.857,3.141-2.495c0.546-0.404,1.25-0.772,1.987-0.852
			C108.084,28.07,109.676,28.808,110.092,29.117z"/>
		<path fill="#FFFFFF" stroke="#BC333A" stroke-width="2" stroke-miterlimit="10" d="M104.648,19.58
			c-2.341,2.075-2.442,1.824-3.927,2.503c0.992-1.963,0.689-1.197,1.815-2.804c0.775-1.107,0.927-1.428,2.225-3.065
			c0.818-0.834,1.755-1.702,2.504-2.596c0.373,0.17,0.765,0.914,1.067,1.238c0.791,0.843,1.639,1.628,2.422,2.476
			c0.727,0.784,1.416,1.728,2.075,2.578c0.433,0.56,0.641,0.961,1.22,2.173c-1.143-0.409-2.338-1.333-3.353-2.062
			c-1.073-0.771-1.754-1.709-3.464-2.487C105.603,18.569,105.603,18.569,104.648,19.58z"/>
	</g>
	<g>
		<path fill="#BC333A" stroke="#BC333A" stroke-width="2" stroke-miterlimit="10" d="M54.781,106.17c0-2.333-0.6-3.629-2.18-5.31
			c0.568-0.944,2.139-2.614,2.659-3.39c0.966-1.444,1.387-3.056,1.763-4.683c0.396-1.71,0.455-3.987-0.217-5.609
			c-0.48-1.16-2.272-3.261-3.652-3.143c0.88-2.425,2.821-9.457,3.322-14.259c0.233-4.558-0.1-8.721-0.609-10.94
			c-1.051-3.397-4.471-8.657-4.92-8.989c-0.793-0.589-3.82,1.494-4.647,2.151c-0.683,0.544-1.286,1.649-2.095,1.725
			c-0.559,0.053-4.48-2.969-7.5,0.7c-0.368,0.849-1.165,2.156-1.003,4.108c-2.41-0.595-4.862-1.089-6.815,0.862
			c-1.566,1.567-1.808,6.13-1.078,8.284c-3.08,0.589-4.141,2.567-4.264,4.958c-0.13,2.501,1.699,5.536,1.699,5.536
			s0.007,2.651,0.541,3.948c0.491,1.191,0.705,1.98,0.166,3.203c-2.112-1.578-6.313-5.912-7.501-5.954
			c-3.537-0.132-5.214,2.732-5.669,3.874c-1.249,3.125-1.406,8.804-0.858,10.447c0.561,1.683,2.56,4.744,4.685,6.25
			c-0.386,0.45-0.977,0.564-1.405,0.924c-0.584,0.492-0.731,1.04-1.113,1.641c-0.675,1.064-1.33,2.51-1.888,3.932
			c0,0,1.283,2.446,1.888,3.4c0.381,0.6,0.528,1.149,1.113,1.641c0.428,0.36,1.019,0.473,1.405,0.923
			c-2.125,1.507-4.124,4.568-4.685,6.251c-0.548,1.644-0.39,7.32,0.858,10.446c0.455,1.14,2.132,4.004,5.669,3.874
			c1.188-0.042,5.39-4.376,7.501-5.954c0.539,1.223,0.325,2.012-0.166,3.203c-0.534,1.295-0.541,3.947-0.541,3.947
			s-1.829,3.034-1.699,5.536c0.124,2.391,1.185,4.367,4.264,4.957c-0.729,2.154-0.488,6.717,1.078,8.283
			c1.953,1.953,4.405,1.458,6.815,0.864c-0.162,1.951,0.635,3.258,1.003,4.108c3.021,3.668,6.941,0.647,7.5,0.699
			c0.809,0.076,1.412,1.181,2.095,1.726c0.827,0.657,3.854,2.74,4.647,2.151c0.45-0.331,3.87-5.591,4.92-8.989
			c0.509-2.22,0.842-6.383,0.609-10.94c-0.501-4.802-2.442-11.834-3.322-14.259c1.379,0.119,3.172-1.983,3.652-3.143
			c0.672-1.623,0.613-3.899,0.217-5.609c-0.376-1.625-0.797-3.237-1.763-4.681c-0.52-0.776-2.091-2.446-2.659-3.39
			C54.181,109.799,54.781,108.502,54.781,106.17"/>
		<g>
			<g>
				<path fill="#FFFFFF" stroke="#BC333A" stroke-width="2" stroke-miterlimit="10" d="M50.411,100.338
					c-0.774,0.138-1.536-0.096-2.12-0.61c-1.119-0.983-1.051-3.531-0.543-4.814c0.576-1.453,1.54-2.45,2.768-3.361
					c0.747-0.552,0.996-0.784,1.26-1.727c0.301-1.076,0.469-2.341,1.026-3.322c0.697-1.228,2.042-0.263,2.463,0.847
					c0.426,1.123,0.261,2.979,0.168,4.209c-0.105,1.397-0.657,2.885-1.306,4.172C53.651,96.679,50.975,100.237,50.411,100.338z"/>
				<path fill="#FFFFFF" stroke="#BC333A" stroke-width="2" stroke-miterlimit="10" d="M45.439,90.656c0,0,0.135-0.085,0.373-0.267
					c1.531-1.173,7.306-6.414,8.741-19.595c-3.644,6.144-7.16,11.95-8.979,19.777"/>
				<path fill="#FFFFFF" stroke="#BC333A" stroke-width="2" stroke-miterlimit="10" d="M44.611,57.058
					c-0.148-0.458-1.535-0.97-2.005-1.073c-0.899-0.2-2.014-0.345-2.924-0.076c-1.832,0.544-1.344,3.208-0.55,4.518
					c0.499,0.823,1.254,1.633,2.199,1.957c1.321,0.458,2.867,0.166,3.775-0.913c0.652-0.773,1.05-1.57,0.84-2.601
					c-0.245-1.204-1.16-1.957-2.176-2.443"/>
				<path fill="#FFFFFF" stroke="#BC333A" stroke-width="2" stroke-miterlimit="10" d="M37.134,63.32
					c-0.166-0.507-1.706-1.078-2.229-1.194c-0.998-0.221-2.237-0.381-3.249-0.082c-2.034,0.605-1.493,3.563-0.61,5.018
					c0.554,0.915,1.394,1.814,2.442,2.175c1.469,0.507,3.186,0.184,4.196-1.013c0.725-0.862,1.165-1.746,0.934-2.893
					c-0.272-1.336-1.289-2.175-2.418-2.714"/>
				<path fill="#FFFFFF" stroke="#BC333A" stroke-width="2" stroke-miterlimit="10" d="M31.506,72.404
					c-0.263-0.316-1.574-0.279-1.998-0.21c-0.809,0.129-1.78,0.371-2.455,0.878c-1.358,1.018-0.135,2.979,0.926,3.766
					c0.668,0.495,1.545,0.897,2.429,0.853c1.24-0.061,2.437-0.787,2.863-1.936c0.305-0.826,0.392-1.585-0.099-2.338
					c-0.573-0.878-1.565-1.183-2.559-1.244"/>
				<path fill="#FFFFFF" stroke="#BC333A" stroke-width="2" stroke-miterlimit="10" d="M31.377,81.661
					c-0.312-0.142-1.24,0.334-1.518,0.529c-0.531,0.371-1.137,0.884-1.424,1.488c-0.579,1.215,1.065,2.246,2.135,2.462
					c0.673,0.137,1.461,0.131,2.08-0.203c0.867-0.471,1.444-1.415,1.303-2.409c-0.104-0.712-0.338-1.302-0.983-1.691
					c-0.755-0.452-1.587-0.336-2.326-0.042"/>
				<path fill="#FFFFFF" stroke="#BC333A" stroke-width="2" stroke-miterlimit="10" d="M34.849,98.917
					c-0.502,0.216-1.949,0.45-2.594-0.318c-0.367-0.437,1.577-3.101,2.861-3.235c3.549-0.289,6.543,1.163,7.136,1.452
					c0.814,0.397,1.646,0.882,1.546,1.909c-0.11,1.123-1.241,1.104-2.188,0.979c-0.767-0.103-1.902-0.652-2.931-0.96
					C36.477,98.441,35.938,98.451,34.849,98.917z"/>
				<path fill="#FFFFFF" stroke="#BC333A" stroke-width="2" stroke-miterlimit="10" d="M28.776,96.042
					c0.631,1.388,0.725,2.159,0.628,2.559c-1.675,0.163-3.416-1.082-4.676-2.172c-0.666-0.576-1.506-0.402-2.343-0.402
					c-0.812,0-1.624-0.01-2.437,0c-0.614,0.005-0.647-0.298-0.646-0.883c0-0.418-0.024-0.773,0.114-1.16
					c0.268-0.754,0.576-1.215,1.04-1.825c0.414-0.547,0.844-1.078,1.411-1.431c0.556-0.346,1.24-0.848,1.828-0.359
					c0.296,0.248,2.533,2.003,2.976,2.518C27.619,93.988,28.145,94.654,28.776,96.042z"/>
				<path fill="#FFFFFF" stroke="#BC333A" stroke-width="2" stroke-miterlimit="10" d="M22.95,85.019
					c-1.087-0.92-2.201-1.778-3.414-2.532c-0.581-0.363-1.875-1.35-2.577-1.068c-1.452,0.581-3.467,6.546-3.547,8.203
					c-0.042,0.881-0.056,1.83,0.003,2.714c0.042,0.648,0.475,1.466,0.829,2.024c0.514,0.81,1.215,1.382,1.969,1.867
					c-0.41-0.798-0.615-1.462-0.697-2.387c-0.104-1.174-0.124-2.61,0.021-3.785c0.126-1.023,0.421-2.382,0.978-3.261
					c0.35-0.555,0.893-1.086,1.397-1.557c0.437-0.402,0.668-0.854,1.261-0.437c0.558,0.395,11.362,7.436,12.841,8.085
					C30.342,90.946,24.06,85.958,22.95,85.019z"/>
			</g>
			<path fill="#FFFFFF" stroke="#BC333A" stroke-width="2" stroke-miterlimit="10" d="M53.457,66.505
				c-0.99,1.428-1.208,0.047-2.295-1.476c0.421,1.208,1.432,4.561,0.797,5.804c-0.67,1.313-3.658-1.049-5.215-2.186
				c0.423,0.374,2.996,3.614,3.252,4.124c0.277,0.549,0.151,1.467-0.475,1.599c-1.81,0.379-3.59-1.139-4.881-1.936
				c0.081,0.227,3.214,3.942,2.757,4.713c-0.547,0.926-1.804,0.615-2.201,0.547c-0.665-0.116-0.928-0.124-1.991-0.976
				c1.584,2.03,1.64,2.809,1.266,3.29c-0.434,0.558-0.883,0.715-1.515,1.01c-0.746,0.35-2.381-0.402-2.819-0.505
				c0.228,0.452,0.311,1.581,0.21,2.02c-0.099,0.437-0.547,0.926-1.052,1.136c0,0.21,0.997,1.157,0.926,2.02
				c-0.22,2.682,0.033,5.6,0.21,8.08c-0.666-0.371-2.418-3.544-2.819-4.63c-0.166-0.447-1.04-1.573-1.178-2.104
				c-0.613-2.343-0.197-3.306,0.252-3.871c-0.631-0.421-1.313-0.82-1.313-2.19c0-0.797,1.396-2.564,2.364-2.27
				c-1.178-1.431-2.364-3.24-1.717-4.187c0.609-0.892,2.4-1.031,3.99-0.273c-1.332-1.052-1.332-1.212-1.883-1.67
				c-0.401-0.332-1.153-1.447-0.613-1.844c0.398-0.294,1.234-0.736,1.696-0.694c0.661,0.063,2.072,0.505,4.082,1.431
				c-0.905-0.896-2.622-3.532-2.707-5.004c-0.042-0.723,1.344-0.358,2.917,0.292c0.912,0.376,2.499,1.22,3.24,1.893
				c-0.321-0.515-1.552-1.765-1.883-2.27c-0.521-0.789-1.257-1.701-1.222-2.064c0.516-0.147,1.319-0.039,1.8,0.126
				c0.847,0.292,1.43,0.631,2.543,1.352c-0.585-0.949-0.856-1.404-1.113-2.025c-0.31-0.75-0.336-0.5-0.336-1.888
				c0-0.842,1.423-0.631,2.063-0.479c0.806,0.192,0.848,0.497,1.461,1.07c-0.062-0.592,0.105-2.793,0.4-3.229
				c0.302-0.45,0.84-0.534,1.373-0.413c0.742,0.166,1.702,0.76,2.193,1.32c0.843,0.962,1.114,3.571,0.53,3.787
				c-0.776,0.289-1.51,0.655-1.666-0.053C52.887,63.883,53.943,65.8,53.457,66.505z"/>
		</g>
		<g>
			<g>
				<path fill="#FFFFFF" stroke="#BC333A" stroke-width="2" stroke-miterlimit="10" d="M50.42,111.956
					c-0.776-0.138-1.536,0.096-2.121,0.61c-1.118,0.983-1.049,3.53-0.542,4.814c0.575,1.453,1.539,2.45,2.768,3.361
					c0.746,0.552,0.996,0.784,1.258,1.725c0.303,1.077,0.47,2.342,1.026,3.323c0.697,1.229,2.043,0.262,2.464-0.847
					c0.425-1.123,0.261-2.979,0.168-4.208c-0.106-1.399-0.659-2.885-1.306-4.174C53.66,115.616,50.983,112.057,50.42,111.956z"/>
				<path fill="#FFFFFF" stroke="#BC333A" stroke-width="2" stroke-miterlimit="10" d="M45.447,121.639c0,0,0.135,0.084,0.374,0.266
					c1.53,1.173,7.306,6.415,8.74,19.595c-3.644-6.143-7.16-11.95-8.979-19.776"/>
				<path fill="#FFFFFF" stroke="#BC333A" stroke-width="2" stroke-miterlimit="10" d="M44.62,155.235
					c-0.149,0.457-1.536,0.969-2.007,1.073c-0.898,0.2-2.013,0.344-2.924,0.075c-1.832-0.543-1.344-3.207-0.55-4.517
					c0.5-0.823,1.255-1.633,2.199-1.958c1.323-0.456,2.868-0.165,3.776,0.913c0.652,0.774,1.049,1.571,0.84,2.602
					c-0.245,1.205-1.16,1.957-2.176,2.443"/>
				<path fill="#FFFFFF" stroke="#BC333A" stroke-width="2" stroke-miterlimit="10" d="M37.142,148.974
					c-0.165,0.508-1.706,1.077-2.229,1.193c-0.998,0.221-2.237,0.382-3.248,0.083c-2.035-0.604-1.494-3.563-0.611-5.018
					c0.555-0.915,1.394-1.814,2.443-2.175c1.469-0.508,3.185-0.184,4.194,1.012c0.725,0.861,1.167,1.747,0.934,2.892
					c-0.272,1.337-1.289,2.175-2.418,2.715"/>
				<path fill="#FFFFFF" stroke="#BC333A" stroke-width="2" stroke-miterlimit="10" d="M31.515,139.89
					c-0.263,0.315-1.574,0.279-1.997,0.21c-0.809-0.13-1.782-0.371-2.457-0.878c-1.357-1.019-0.135-2.981,0.927-3.767
					c0.667-0.495,1.543-0.896,2.429-0.852c1.239,0.062,2.435,0.788,2.861,1.937c0.305,0.825,0.392,1.584-0.098,2.338
					c-0.573,0.878-1.564,1.184-2.56,1.244"/>
				<path fill="#FFFFFF" stroke="#BC333A" stroke-width="2" stroke-miterlimit="10" d="M31.387,130.633
					c-0.312,0.142-1.24-0.334-1.519-0.528c-0.531-0.372-1.136-0.884-1.423-1.489c-0.58-1.216,1.065-2.246,2.136-2.461
					c0.673-0.137,1.459-0.133,2.079,0.203c0.868,0.469,1.445,1.415,1.303,2.408c-0.103,0.714-0.336,1.303-0.982,1.692
					c-0.756,0.452-1.587,0.336-2.327,0.042"/>
				<path fill="#FFFFFF" stroke="#BC333A" stroke-width="2" stroke-miterlimit="10" d="M34.858,113.377
					c-0.503-0.214-1.95-0.448-2.594,0.32c-0.368,0.437,1.577,3.101,2.861,3.233c3.547,0.291,6.543-1.161,7.135-1.451
					c0.814-0.398,1.647-0.883,1.546-1.909c-0.11-1.124-1.24-1.104-2.188-0.978c-0.767,0.101-1.901,0.652-2.93,0.958
					C36.484,113.854,35.945,113.843,34.858,113.377z"/>
				<path fill="#FFFFFF" stroke="#BC333A" stroke-width="2" stroke-miterlimit="10" d="M28.784,116.253
					c0.631-1.389,0.726-2.161,0.63-2.56c-1.675-0.162-3.417,1.082-4.677,2.173c-0.666,0.576-1.505,0.402-2.342,0.402
					c-0.813,0-1.625,0.009-2.437,0c-0.616-0.006-0.648,0.297-0.647,0.884c0.001,0.417-0.022,0.773,0.114,1.158
					c0.27,0.756,0.576,1.216,1.04,1.827c0.415,0.546,0.844,1.078,1.411,1.431c0.556,0.345,1.24,0.847,1.828,0.356
					c0.297-0.246,2.533-2,2.976-2.516C27.628,118.306,28.153,117.642,28.784,116.253z"/>
				<path fill="#FFFFFF" stroke="#BC333A" stroke-width="2" stroke-miterlimit="10" d="M22.959,127.275
					c-1.087,0.92-2.201,1.777-3.414,2.532c-0.583,0.362-1.876,1.349-2.577,1.068c-1.452-0.581-3.467-6.547-3.547-8.203
					c-0.042-0.882-0.056-1.831,0.003-2.714c0.043-0.647,0.476-1.465,0.829-2.022c0.514-0.81,1.216-1.383,1.969-1.867
					c-0.41,0.797-0.615,1.462-0.698,2.385c-0.104,1.175-0.124,2.611,0.022,3.784c0.126,1.023,0.421,2.383,0.978,3.261
					c0.35,0.554,0.893,1.086,1.398,1.556c0.437,0.404,0.668,0.856,1.26,0.438c0.559-0.395,11.364-7.435,12.842-8.084
					C30.35,121.35,24.067,126.336,22.959,127.275z"/>
			</g>
			<path fill="#FFFFFF" stroke="#BC333A" stroke-width="2" stroke-miterlimit="10" d="M53.464,145.789
				c-0.99-1.428-1.208-0.049-2.294,1.475c0.42-1.207,1.433-4.56,0.798-5.804c-0.672-1.314-3.659,1.049-5.216,2.185
				c0.423-0.375,2.996-3.613,3.253-4.124c0.276-0.551,0.151-1.467-0.476-1.599c-1.81-0.378-3.588,1.139-4.881,1.936
				c0.082-0.226,3.214-3.942,2.758-4.712c-0.547-0.926-1.804-0.616-2.2-0.547c-0.667,0.115-0.928,0.124-1.991,0.976
				c1.583-2.03,1.64-2.809,1.265-3.29c-0.433-0.558-0.882-0.715-1.515-1.01c-0.744-0.35-2.381,0.401-2.819,0.505
				c0.227-0.453,0.31-1.581,0.21-2.02c-0.099-0.437-0.547-0.926-1.052-1.136c0.001-0.21,0.997-1.158,0.926-2.02
				c-0.22-2.684,0.033-5.599,0.21-8.079c-0.664,0.371-2.418,3.542-2.819,4.629c-0.166,0.447-1.039,1.571-1.178,2.104
				c-0.613,2.343-0.197,3.306,0.252,3.872c-0.631,0.42-1.312,0.82-1.312,2.19c0,0.797,1.396,2.564,2.364,2.27
				c-1.178,1.431-2.364,3.24-1.716,4.187c0.607,0.892,2.398,1.031,3.988,0.273c-1.331,1.052-1.331,1.212-1.883,1.67
				c-0.4,0.332-1.152,1.446-0.613,1.844c0.399,0.293,1.236,0.736,1.696,0.694c0.661-0.063,2.074-0.505,4.082-1.43
				c-0.905,0.895-2.622,3.532-2.706,5.004c-0.041,0.723,1.344,0.356,2.917-0.292c0.911-0.376,2.498-1.22,3.24-1.894
				c-0.321,0.516-1.552,1.765-1.883,2.269c-0.521,0.79-1.257,1.703-1.222,2.064c0.517,0.147,1.319,0.039,1.8-0.125
				c0.847-0.292,1.431-0.631,2.544-1.352c-0.586,0.95-0.856,1.403-1.114,2.025c-0.311,0.75-0.337,0.498-0.337,1.887
				c0,0.842,1.423,0.632,2.064,0.48c0.806-0.192,0.848-0.497,1.461-1.07c-0.062,0.59,0.104,2.793,0.398,3.229
				c0.303,0.448,0.842,0.534,1.373,0.413c0.743-0.167,1.703-0.76,2.193-1.32c0.843-0.962,1.114-3.571,0.53-3.787
				c-0.776-0.29-1.508-0.655-1.666,0.053C52.895,148.411,53.951,146.493,53.464,145.789z"/>
		</g>
		<path fill="#FFFFFF" stroke="#BC333A" stroke-width="2" stroke-miterlimit="10" d="M37.792,106.17
			c-0.067,1.402,1.841,2.412,1.442,3.406c-0.513,1.278-1.594,0.721-2.254,0.511c-1.165-0.369-2.236-1.016-2.503-2.289
			c-0.179-0.855-0.159-2.615,0.114-3.44c0.329-0.994,0.792-1.835,1.994-2.218c0.564-0.18,2.37-0.448,2.571,0.249
			C39.632,104.037,37.868,104.587,37.792,106.17z"/>
		<path fill="#FFFFFF" stroke="#BC333A" stroke-width="2" stroke-miterlimit="10" d="M29.141,103.756
			c0.318-0.426,2.208-2.22,2.347-2.728c-0.366,0.013-2.743,0.2-3.164,0.203c-0.436,0.005-2.079,0.581-2.55,1.123
			c-0.979,1.132-1.457,1.772-1.427,3.498c0.022,1.305,0.088,2.199,0.6,2.896c0.659,0.899,1.448,1.441,1.837,1.641
			c1.55,0.799,2.383,0.736,4.701,0.923c-0.114-1.068-1.856-2.28-2.494-3.142c-0.404-0.546-0.772-1.25-0.852-1.987
			C28.094,105.764,28.832,104.171,29.141,103.756z"/>
		<path fill="#FFFFFF" stroke="#BC333A" stroke-width="2" stroke-miterlimit="10" d="M19.604,109.2
			c2.075,2.34,1.824,2.442,2.502,3.926c-1.963-0.992-1.196-0.689-2.803-1.814c-1.107-0.776-1.428-0.927-3.065-2.225
			c-0.834-0.818-1.703-1.755-2.596-2.503c0.169-0.374,0.914-0.766,1.238-1.068c0.844-0.791,1.628-1.639,2.476-2.422
			c0.784-0.726,1.727-1.416,2.578-2.075c0.559-0.433,0.959-0.641,2.172-1.219c-0.407,1.143-1.332,2.337-2.06,3.352
			c-0.772,1.073-1.709,1.754-2.487,3.463C18.593,108.245,18.593,108.245,19.604,109.2z"/>
	</g>
	<g>
		<path fill="#BC333A" stroke="#BC333A" stroke-width="2" stroke-miterlimit="10" d="M158.625,106.169c0,2.333,0.6,3.629,2.18,5.31
			c-0.568,0.944-2.138,2.614-2.659,3.39c-0.965,1.444-1.386,3.056-1.762,4.683c-0.396,1.711-0.455,3.987,0.216,5.609
			c0.481,1.16,2.272,3.261,3.653,3.143c-0.882,2.425-2.822,9.457-3.322,14.259c-0.233,4.558,0.101,8.721,0.607,10.94
			c1.051,3.398,4.471,8.658,4.921,8.989c0.793,0.589,3.82-1.494,4.646-2.151c0.683-0.544,1.286-1.649,2.095-1.725
			c0.56-0.053,4.48,2.969,7.501-0.7c0.368-0.85,1.165-2.157,1.003-4.108c2.41,0.594,4.863,1.089,6.815-0.863
			c1.566-1.567,1.809-6.13,1.078-8.284c3.08-0.589,4.141-2.567,4.265-4.958c0.13-2.501-1.699-5.536-1.699-5.536
			s-0.006-2.651-0.54-3.948c-0.49-1.191-0.705-1.98-0.166-3.203c2.112,1.578,6.313,5.912,7.502,5.954
			c3.537,0.131,5.214-2.732,5.669-3.874c1.249-3.124,1.406-8.803,0.858-10.447c-0.561-1.684-2.559-4.745-4.684-6.25
			c0.385-0.45,0.977-0.564,1.404-0.924c0.584-0.492,0.73-1.041,1.112-1.641c0.676-1.064,1.331-2.51,1.889-3.932
			c0,0-1.282-2.446-1.889-3.4c-0.382-0.6-0.528-1.149-1.112-1.641c-0.428-0.36-1.02-0.474-1.404-0.923
			c2.125-1.507,4.123-4.568,4.684-6.251c0.548-1.644,0.391-7.32-0.858-10.446c-0.455-1.14-2.132-4.004-5.669-3.874
			c-1.188,0.042-5.39,4.376-7.502,5.954c-0.539-1.223-0.324-2.012,0.166-3.203c0.534-1.295,0.54-3.948,0.54-3.948
			s1.829-3.033,1.699-5.536c-0.124-2.391-1.185-4.367-4.265-4.958c0.73-2.154,0.488-6.716-1.078-8.283
			c-1.952-1.953-4.405-1.458-6.815-0.864c0.162-1.951-0.635-3.258-1.003-4.108c-3.021-3.668-6.941-0.647-7.501-0.7
			c-0.809-0.076-1.412-1.181-2.095-1.725c-0.826-0.657-3.854-2.74-4.646-2.151c-0.45,0.332-3.868,5.591-4.921,8.989
			c-0.507,2.219-0.841,6.383-0.607,10.94c0.5,4.802,2.44,11.834,3.322,14.259c-1.381-0.118-3.172,1.983-3.653,3.143
			c-0.671,1.623-0.612,3.898-0.216,5.609c0.376,1.625,0.797,3.237,1.762,4.681c0.521,0.776,2.091,2.446,2.659,3.39
			C159.225,102.54,158.625,103.836,158.625,106.169"/>
		<g>
			<g>
				<path fill="#FFFFFF" stroke="#BC333A" stroke-width="2" stroke-miterlimit="10" d="M162.995,112.001
					c0.774-0.138,1.536,0.096,2.12,0.61c1.118,0.983,1.05,3.53,0.543,4.814c-0.576,1.453-1.54,2.45-2.769,3.361
					c-0.745,0.552-0.995,0.784-1.258,1.727c-0.303,1.076-0.471,2.34-1.026,3.321c-0.696,1.229-2.043,0.263-2.464-0.847
					c-0.426-1.123-0.261-2.979-0.168-4.209c0.104-1.398,0.657-2.885,1.307-4.172C159.756,115.661,162.43,112.102,162.995,112.001z"
					/>
				<path fill="#FFFFFF" stroke="#BC333A" stroke-width="2" stroke-miterlimit="10" d="M167.966,121.683
					c0,0-0.136,0.085-0.373,0.267c-1.531,1.173-7.306,6.415-8.739,19.595c3.643-6.143,7.158-11.95,8.977-19.776"/>
				<path fill="#FFFFFF" stroke="#BC333A" stroke-width="2" stroke-miterlimit="10" d="M168.794,155.281
					c0.149,0.458,1.535,0.971,2.006,1.073c0.899,0.2,2.015,0.344,2.924,0.076c1.832-0.544,1.344-3.208,0.55-4.518
					c-0.498-0.823-1.254-1.633-2.198-1.957c-1.321-0.458-2.866-0.166-3.775,0.912c-0.652,0.773-1.049,1.57-0.84,2.601
					c0.244,1.205,1.159,1.957,2.176,2.443"/>
				<path fill="#FFFFFF" stroke="#BC333A" stroke-width="2" stroke-miterlimit="10" d="M176.272,149.019
					c0.165,0.508,1.705,1.078,2.229,1.194c0.998,0.221,2.236,0.381,3.249,0.082c2.034-0.604,1.492-3.563,0.61-5.018
					c-0.554-0.915-1.394-1.814-2.442-2.175c-1.469-0.508-3.186-0.184-4.195,1.012c-0.725,0.863-1.165,1.747-0.934,2.893
					c0.271,1.336,1.288,2.175,2.418,2.714"/>
				<path fill="#FFFFFF" stroke="#BC333A" stroke-width="2" stroke-miterlimit="10" d="M181.9,139.936
					c0.263,0.315,1.573,0.279,1.997,0.21c0.809-0.129,1.78-0.371,2.455-0.878c1.358-1.018,0.135-2.979-0.926-3.766
					c-0.668-0.494-1.545-0.896-2.429-0.852c-1.24,0.061-2.437,0.787-2.862,1.936c-0.306,0.826-0.393,1.586,0.099,2.338
					c0.573,0.878,1.564,1.184,2.559,1.244"/>
				<path fill="#FFFFFF" stroke="#BC333A" stroke-width="2" stroke-miterlimit="10" d="M182.029,130.678
					c0.312,0.142,1.239-0.334,1.517-0.528c0.531-0.371,1.138-0.884,1.425-1.489c0.578-1.215-1.065-2.246-2.136-2.461
					c-0.673-0.137-1.461-0.131-2.08,0.203c-0.867,0.471-1.444,1.415-1.304,2.409c0.104,0.713,0.338,1.302,0.984,1.691
					c0.754,0.453,1.587,0.337,2.326,0.042"/>
				<path fill="#FFFFFF" stroke="#BC333A" stroke-width="2" stroke-miterlimit="10" d="M178.557,113.422
					c0.502-0.215,1.948-0.45,2.594,0.318c0.367,0.437-1.576,3.101-2.861,3.235c-3.549,0.289-6.543-1.163-7.136-1.452
					c-0.814-0.397-1.646-0.882-1.547-1.91c0.111-1.123,1.242-1.104,2.188-0.978c0.767,0.103,1.901,0.652,2.931,0.96
					C176.929,113.898,177.468,113.888,178.557,113.422z"/>
				<path fill="#FFFFFF" stroke="#BC333A" stroke-width="2" stroke-miterlimit="10" d="M184.629,116.297
					c-0.631-1.389-0.725-2.159-0.629-2.559c1.676-0.163,3.416,1.083,4.676,2.172c0.666,0.576,1.506,0.402,2.344,0.402
					c0.812,0,1.624,0.011,2.437,0c0.614-0.005,0.646,0.299,0.646,0.884c0,0.418,0.023,0.773-0.114,1.16
					c-0.269,0.755-0.576,1.215-1.04,1.825c-0.414,0.547-0.845,1.078-1.411,1.431c-0.557,0.346-1.24,0.848-1.828,0.359
					c-0.296-0.247-2.532-2.002-2.976-2.518C185.787,118.351,185.26,117.686,184.629,116.297z"/>
				<path fill="#FFFFFF" stroke="#BC333A" stroke-width="2" stroke-miterlimit="10" d="M190.456,127.32
					c1.088,0.921,2.201,1.778,3.414,2.533c0.581,0.363,1.876,1.349,2.577,1.068c1.451-0.581,3.466-6.546,3.546-8.203
					c0.042-0.881,0.057-1.831-0.002-2.714c-0.044-0.648-0.477-1.466-0.83-2.024c-0.515-0.81-1.215-1.382-1.969-1.867
					c0.41,0.798,0.615,1.462,0.697,2.387c0.104,1.174,0.124,2.61-0.021,3.784c-0.126,1.023-0.422,2.383-0.978,3.261
					c-0.351,0.555-0.894,1.086-1.398,1.557c-0.437,0.402-0.668,0.855-1.261,0.437c-0.558-0.394-11.362-7.436-12.842-8.085
					C183.063,121.394,189.346,126.381,190.456,127.32z"/>
			</g>
			<path fill="#FFFFFF" stroke="#BC333A" stroke-width="2" stroke-miterlimit="10" d="M159.951,145.834
				c0.988-1.428,1.207-0.047,2.293,1.475c-0.421-1.207-1.431-4.56-0.797-5.804c0.671-1.312,3.658,1.049,5.215,2.186
				c-0.423-0.374-2.995-3.613-3.252-4.124c-0.277-0.55-0.15-1.467,0.476-1.599c1.809-0.378,3.589,1.139,4.881,1.936
				c-0.08-0.226-3.214-3.942-2.758-4.712c0.547-0.926,1.805-0.616,2.201-0.547c0.665,0.116,0.929,0.124,1.991,0.976
				c-1.585-2.03-1.64-2.809-1.267-3.29c0.434-0.558,0.884-0.715,1.515-1.01c0.746-0.35,2.382,0.403,2.819,0.505
				c-0.228-0.453-0.311-1.581-0.21-2.02c0.099-0.437,0.547-0.926,1.052-1.136c0-0.21-0.997-1.157-0.926-2.02
				c0.22-2.683-0.033-5.6-0.21-8.08c0.665,0.371,2.418,3.543,2.818,4.63c0.166,0.447,1.041,1.572,1.179,2.104
				c0.612,2.343,0.197,3.306-0.253,3.872c0.632,0.42,1.313,0.82,1.313,2.19c0,0.797-1.396,2.564-2.364,2.27
				c1.179,1.431,2.364,3.24,1.718,4.187c-0.609,0.891-2.4,1.031-3.99,0.273c1.332,1.052,1.332,1.212,1.884,1.67
				c0.4,0.332,1.152,1.446,0.612,1.843c-0.398,0.295-1.234,0.737-1.696,0.694c-0.661-0.063-2.072-0.505-4.081-1.431
				c0.904,0.897,2.621,3.532,2.706,5.005c0.042,0.723-1.344,0.357-2.917-0.292c-0.911-0.376-2.498-1.22-3.24-1.894
				c0.321,0.516,1.552,1.765,1.884,2.27c0.521,0.789,1.257,1.702,1.221,2.064c-0.515,0.147-1.318,0.04-1.8-0.126
				c-0.847-0.292-1.431-0.631-2.543-1.352c0.585,0.95,0.856,1.404,1.112,2.025c0.311,0.75,0.337,0.5,0.337,1.888
				c0,0.841-1.423,0.631-2.063,0.479c-0.806-0.192-0.848-0.497-1.461-1.07c0.062,0.592-0.105,2.793-0.399,3.229
				c-0.303,0.45-0.841,0.534-1.373,0.413c-0.741-0.166-1.701-0.76-2.193-1.32c-0.842-0.963-1.112-3.571-0.528-3.787
				c0.775-0.29,1.51-0.655,1.665,0.053C160.519,148.457,159.464,146.539,159.951,145.834z"/>
		</g>
		<g>
			<g>
				<path fill="#FFFFFF" stroke="#BC333A" stroke-width="2" stroke-miterlimit="10" d="M162.986,100.383
					c0.775,0.138,1.535-0.096,2.12-0.61c1.118-0.983,1.05-3.531,0.542-4.814c-0.574-1.453-1.538-2.45-2.768-3.361
					c-0.744-0.552-0.994-0.784-1.257-1.726c-0.303-1.077-0.471-2.342-1.026-3.323c-0.696-1.228-2.043-0.262-2.464,0.847
					c-0.426,1.123-0.261,2.98-0.168,4.208c0.104,1.399,0.657,2.885,1.304,4.174C159.746,96.723,162.422,100.282,162.986,100.383z"/>
				<path fill="#FFFFFF" stroke="#BC333A" stroke-width="2" stroke-miterlimit="10" d="M167.958,90.7c0,0-0.136-0.084-0.373-0.266
					c-1.531-1.173-7.307-6.414-8.739-19.595c3.643,6.144,7.158,11.95,8.977,19.777"/>
				<path fill="#FFFFFF" stroke="#BC333A" stroke-width="2" stroke-miterlimit="10" d="M168.786,57.104
					c0.148-0.456,1.536-0.969,2.007-1.073c0.897-0.2,2.013-0.345,2.924-0.075c1.832,0.543,1.344,3.208,0.55,4.517
					c-0.5,0.823-1.254,1.633-2.198,1.958c-1.323,0.456-2.868,0.164-3.776-0.913c-0.652-0.774-1.05-1.571-0.841-2.603
					c0.245-1.204,1.16-1.957,2.177-2.443"/>
				<path fill="#FFFFFF" stroke="#BC333A" stroke-width="2" stroke-miterlimit="10" d="M176.263,63.365
					c0.165-0.507,1.706-1.077,2.229-1.192c0.998-0.221,2.236-0.383,3.248-0.083c2.035,0.605,1.493,3.563,0.611,5.018
					c-0.555,0.915-1.395,1.814-2.443,2.175c-1.469,0.507-3.185,0.184-4.194-1.013c-0.725-0.861-1.167-1.746-0.934-2.892
					c0.271-1.337,1.288-2.175,2.418-2.715"/>
				<path fill="#FFFFFF" stroke="#BC333A" stroke-width="2" stroke-miterlimit="10" d="M181.89,72.449
					c0.263-0.316,1.574-0.279,1.997-0.21c0.81,0.13,1.782,0.371,2.457,0.878c1.356,1.019,0.135,2.981-0.928,3.767
					c-0.666,0.495-1.543,0.896-2.429,0.852c-1.238-0.062-2.435-0.788-2.861-1.937c-0.305-0.824-0.392-1.584,0.098-2.338
					c0.573-0.878,1.564-1.184,2.561-1.244"/>
				<path fill="#FFFFFF" stroke="#BC333A" stroke-width="2" stroke-miterlimit="10" d="M182.019,81.706
					c0.312-0.142,1.24,0.334,1.519,0.529c0.531,0.372,1.137,0.884,1.423,1.488c0.58,1.216-1.064,2.246-2.136,2.462
					c-0.673,0.137-1.459,0.133-2.078-0.203c-0.868-0.47-1.445-1.415-1.304-2.408c0.103-0.714,0.337-1.303,0.982-1.692
					c0.756-0.452,1.587-0.336,2.327-0.042"/>
				<path fill="#FFFFFF" stroke="#BC333A" stroke-width="2" stroke-miterlimit="10" d="M178.547,98.962
					c0.504,0.214,1.95,0.449,2.595-0.319c0.368-0.437-1.576-3.101-2.861-3.233c-3.548-0.291-6.543,1.161-7.135,1.45
					c-0.814,0.398-1.647,0.884-1.547,1.91c0.111,1.124,1.24,1.104,2.188,0.978c0.767-0.101,1.901-0.652,2.93-0.958
					C176.921,98.485,177.46,98.497,178.547,98.962z"/>
				<path fill="#FFFFFF" stroke="#BC333A" stroke-width="2" stroke-miterlimit="10" d="M184.622,96.086
					c-0.632,1.389-0.726,2.16-0.63,2.56c1.675,0.162,3.417-1.082,4.677-2.173c0.666-0.576,1.506-0.402,2.342-0.402
					c0.813,0,1.626-0.009,2.437,0c0.616,0.006,0.648-0.297,0.647-0.884c-0.001-0.417,0.022-0.773-0.114-1.159
					c-0.27-0.756-0.576-1.216-1.04-1.826c-0.414-0.546-0.845-1.079-1.411-1.431c-0.557-0.345-1.24-0.847-1.828-0.356
					c-0.297,0.246-2.532,2-2.976,2.516C185.777,94.034,185.252,94.698,184.622,96.086z"/>
				<path fill="#FFFFFF" stroke="#BC333A" stroke-width="2" stroke-miterlimit="10" d="M190.447,85.064
					c1.087-0.92,2.201-1.778,3.413-2.533c0.583-0.361,1.877-1.349,2.577-1.067c1.452,0.581,3.468,6.547,3.548,8.203
					c0.042,0.882,0.056,1.83-0.004,2.714c-0.042,0.647-0.475,1.465-0.828,2.022c-0.515,0.81-1.217,1.383-1.97,1.867
					c0.41-0.797,0.615-1.462,0.698-2.385c0.104-1.176,0.123-2.612-0.022-3.785c-0.126-1.023-0.421-2.382-0.977-3.261
					c-0.351-0.554-0.894-1.086-1.399-1.556c-0.437-0.404-0.668-0.856-1.26-0.438c-0.559,0.395-11.364,7.435-12.842,8.084
					C183.055,90.99,189.338,86.003,190.447,85.064z"/>
			</g>
			<path fill="#FFFFFF" stroke="#BC333A" stroke-width="2" stroke-miterlimit="10" d="M159.943,66.55
				c0.988,1.428,1.207,0.048,2.293-1.476c-0.421,1.207-1.434,4.561-0.797,5.804c0.671,1.313,3.658-1.049,5.215-2.186
				c-0.423,0.375-2.995,3.614-3.253,4.124c-0.276,0.551-0.151,1.467,0.476,1.599c1.81,0.379,3.589-1.139,4.882-1.936
				c-0.082,0.226-3.214,3.942-2.758,4.713c0.547,0.926,1.804,0.615,2.2,0.547c0.666-0.116,0.928-0.124,1.99-0.976
				c-1.583,2.03-1.64,2.809-1.265,3.29c0.433,0.558,0.883,0.715,1.515,1.01c0.744,0.35,2.382-0.401,2.819-0.505
				c-0.228,0.452-0.311,1.581-0.21,2.02c0.099,0.437,0.547,0.926,1.052,1.136c-0.002,0.21-0.997,1.159-0.926,2.02
				c0.22,2.684-0.033,5.599-0.211,8.079c0.664-0.371,2.419-3.541,2.819-4.628c0.166-0.447,1.039-1.571,1.179-2.104
				c0.612-2.343,0.197-3.306-0.253-3.871c0.632-0.421,1.313-0.82,1.313-2.19c0-0.797-1.396-2.564-2.364-2.27
				c1.179-1.431,2.364-3.24,1.716-4.187c-0.607-0.892-2.398-1.031-3.988-0.273c1.331-1.052,1.331-1.212,1.883-1.67
				c0.4-0.332,1.152-1.447,0.613-1.844c-0.399-0.293-1.236-0.736-1.696-0.694c-0.661,0.063-2.073,0.505-4.082,1.431
				c0.905-0.896,2.622-3.532,2.707-5.004c0.04-0.724-1.345-0.356-2.917,0.292c-0.911,0.376-2.498,1.22-3.24,1.893
				c0.321-0.515,1.552-1.765,1.883-2.268c0.521-0.79,1.258-1.703,1.222-2.064c-0.517-0.147-1.318-0.04-1.8,0.125
				c-0.847,0.292-1.431,0.631-2.544,1.352c0.586-0.949,0.855-1.403,1.113-2.025c0.311-0.75,0.337-0.499,0.337-1.887
				c0-0.842-1.423-0.633-2.064-0.48c-0.807,0.192-0.849,0.497-1.461,1.07c0.062-0.59-0.104-2.793-0.398-3.229
				c-0.303-0.449-0.842-0.534-1.373-0.413c-0.741,0.167-1.701,0.76-2.193,1.32c-0.842,0.962-1.112,3.571-0.528,3.787
				c0.775,0.289,1.507,0.655,1.664-0.053C160.51,63.928,159.457,65.847,159.943,66.55z"/>
		</g>
		<path fill="#FFFFFF" stroke="#BC333A" stroke-width="2" stroke-miterlimit="10" d="M175.614,106.169
			c0.067-1.402-1.841-2.412-1.442-3.406c0.513-1.278,1.594-0.721,2.254-0.512c1.165,0.37,2.236,1.017,2.504,2.29
			c0.179,0.854,0.159,2.615-0.114,3.44c-0.329,0.994-0.792,1.835-1.994,2.218c-0.563,0.18-2.369,0.448-2.57-0.249
			C173.773,108.302,175.538,107.752,175.614,106.169z"/>
		<path fill="#FFFFFF" stroke="#BC333A" stroke-width="2" stroke-miterlimit="10" d="M184.265,108.583
			c-0.318,0.426-2.208,2.22-2.348,2.727c0.366-0.013,2.743-0.2,3.164-0.202c0.436-0.005,2.079-0.582,2.55-1.123
			c0.979-1.132,1.457-1.772,1.427-3.498c-0.022-1.304-0.088-2.198-0.6-2.896c-0.659-0.899-1.448-1.441-1.837-1.641
			c-1.551-0.8-2.383-0.737-4.701-0.923c0.114,1.068,1.856,2.28,2.494,3.142c0.404,0.545,0.772,1.25,0.853,1.987
			C185.312,106.576,184.574,108.168,184.265,108.583z"/>
		<path fill="#FFFFFF" stroke="#BC333A" stroke-width="2" stroke-miterlimit="10" d="M193.802,103.14
			c-2.075-2.34-1.824-2.442-2.502-3.926c1.963,0.991,1.196,0.689,2.803,1.814c1.107,0.776,1.429,0.927,3.065,2.225
			c0.835,0.818,1.703,1.755,2.596,2.503c-0.17,0.374-0.914,0.765-1.237,1.068c-0.844,0.79-1.628,1.638-2.476,2.422
			c-0.785,0.726-1.729,1.417-2.579,2.075c-0.559,0.433-0.96,0.64-2.172,1.219c0.407-1.143,1.332-2.336,2.061-3.352
			c0.771-1.073,1.709-1.754,2.487-3.464C194.812,104.094,194.812,104.094,193.802,103.14z"/>
	</g>
</g>
<g id="">
	<g>
		<polygon fill="#BC333A" stroke="#BC333A" stroke-width="2" stroke-miterlimit="10" points="60.065,128.686 60.065,152.719 
			103.524,152.719 103.632,128.671 90.471,128.593 90.44,121.942 121.62,121.942 121.585,128.729 109.247,128.655 109.247,152.781 
			152.387,152.854 152.46,128.716 141.418,128.624 141.481,121.974 157.46,121.971 157.537,114.672 141.512,114.58 141.447,108.868 
			152.387,108.868 152.4,88.441 141.45,88.471 141.512,82.688 152.387,82.608 152.387,75.28 141.447,75.206 141.452,71.12 
			152.387,71.093 152.387,63.765 141.447,63.762 141.512,58.9 121.624,59.024 121.561,63.818 90.502,63.818 90.435,58.949 
			72.5,58.962 72.5,63.757 60.034,63.757 60.096,71.054 72.5,71.118 72.5,75.294 60.034,75.294 60.051,82.678 72.5,82.563 
			72.5,88.502 60.127,88.502 60.034,108.827 72.438,108.765 72.407,114.704 55.89,114.642 55.859,122.004 72.494,121.91 
			72.438,128.686 		"/>
		<rect x="90.448" y="71.093" fill="#FFFFFF" width="31.138" height="4.188"/>
		<polygon fill="#FFFFFF" stroke="#BC333A" stroke-miterlimit="10" points="72.438,96.301 72.438,96.453 72.438,102.528 
			90.448,102.528 90.448,96.301 		"/>
		<rect x="121.585" y="96.301" fill="#FFFFFF" stroke="#BC333A" stroke-miterlimit="10" width="19.861" height="6.228"/>
		<polygon fill="#FFFFFF" points="90.448,82.608 121.585,82.608 121.585,88.471 109.254,88.471 109.254,108.919 121.585,108.919 
			121.585,114.768 90.448,114.643 90.448,108.781 103.602,108.781 103.602,88.471 90.448,88.471 		"/>
		<polygon fill="#FFFFFF" stroke="#BC333A" stroke-miterlimit="10" points="72.438,137.369 72.438,143.765 90.448,143.765 
			90.448,137.453 		"/>
		<rect x="121.585" y="137.369" fill="#FFFFFF" stroke="#BC333A" stroke-miterlimit="10" width="19.861" height="6.396"/>
	</g>
</g>
</svg>
